<svg xmlns="http://www.w3.org/2000/svg" viewBox="0 0 141.31 50.01"><defs><style>.cls-1{fill:#4b8bbe;}.cls-2{fill:#ffe873;}.cls-3{fill:none;stroke:#fff;stroke-miterlimit:10;stroke-width:3px;}.cls-4{font-size:30px;fill:#1a1a1a;font-family:ErasITC-Medium, Eras Medium ITC;font-weight:500;}.cls-5{fill:#fff;}</style></defs><title>python_pills</title><g id="Layer_2" data-name="Layer 2"><g id="Layer_1-2" data-name="Layer 1"><path class="cls-1" d="M51.58,27.33H89.72a13.73,13.73,0,0,0,13.74-13.77l0-12.73H24.61A24.56,24.56,0,0,0,0,25.33H0a24.56,24.56,0,0,0,24.61,24.5H37.55l0-8.42A14,14,0,0,1,51.58,27.33Z"/><path class="cls-2" d="M116.69.83H104.08l0,12.73A13.74,13.74,0,0,1,90.38,27.33H52.24A14,14,0,0,0,38.19,41.41l0,8.42h78.48a24.56,24.56,0,0,0,24.62-24.5h0A24.56,24.56,0,0,0,116.69.83Z"/><path class="cls-3" d="M103.51,0l0,13.73A13.73,13.73,0,0,1,89.82,27.5H51.67A14.06,14.06,0,0,0,37.62,41.58l0,8.42"/><text class="cls-4" transform="translate(21.56 31.92)">python</text><circle class="cls-5" cx="19.09" cy="9" r="3"/><circle class="cls-5" cx="123.09" cy="39" r="3"/></g></g></svg>