<?xml version="1.0" standalone="no"?>
<!DOCTYPE svg PUBLIC "-//W3C//DTD SVG 20010904//EN"
 "http://www.w3.org/TR/2001/REC-SVG-20010904/DTD/svg10.dtd">
<svg version="1.0" xmlns="http://www.w3.org/2000/svg"
 width="2665.000000pt" height="2665.000000pt" viewBox="0 0 2665.000000 2665.000000"
 preserveAspectRatio="xMidYMid meet">
<metadata>
Created by potrace 1.11, written by Peter Selinger 2001-2013
</metadata>
<g transform="translate(0.000000,2665.000000) scale(0.100000,-0.100000)"
fill="#000000" stroke="none">
<path d="M4983 20553 c-16 -21 -62 -85 -102 -143 -40 -58 -142 -204 -227 -325
-85 -121 -173 -247 -196 -280 -35 -50 -715 -1021 -827 -1180 -82 -118 -439
-626 -487 -695 -45 -66 -336 -480 -364 -520 -6 -8 -58 -82 -115 -165 -58 -82
-111 -159 -119 -170 -59 -82 -125 -177 -148 -210 -46 -69 -776 -1109 -787
-1122 -6 -7 -11 -15 -11 -18 0 -4 -6 -12 -12 -20 -7 -7 -59 -80 -116 -162 -57
-81 -225 -321 -374 -533 -148 -212 -281 -407 -295 -433 -39 -77 -64 -191 -62
-282 4 -145 37 -242 136 -393 27 -40 122 -188 213 -330 90 -141 201 -313 245
-382 110 -169 597 -927 610 -947 14 -23 141 -222 203 -318 29 -44 52 -87 53
-95 1 -20 1 -3378 0 -3407 l-1 -23 -1100 0 -1100 0 0 -145 0 -145 28 -1 c15 0
6009 -1 13319 -2 11810 -2 13293 0 13294 13 4 76 3 264 -2 271 -3 5 -465 10
-1099 11 l-1095 3 0 1645 0 1645 75 117 c41 65 92 144 112 175 20 32 55 87 78
123 23 36 62 98 88 138 26 39 124 191 217 337 94 145 200 311 238 367 37 57
72 112 77 123 5 11 37 61 69 110 33 50 115 177 183 282 68 106 144 225 170
265 128 197 153 273 152 444 -1 90 -30 202 -70 272 -14 23 -109 163 -212 310
-103 147 -194 277 -202 289 -8 12 -78 111 -155 220 -106 152 -1361 1942 -1530
2183 -17 25 -247 353 -511 730 -264 377 -486 695 -494 707 -8 11 -43 61 -78
110 -35 48 -184 261 -332 473 -149 212 -276 394 -284 405 -11 15 -215 307
-387 552 -15 22 -15 22 -130 -58 -62 -44 -116 -84 -117 -90 -2 -5 12 -30 31
-57 18 -26 56 -78 82 -117 27 -38 130 -187 230 -330 100 -143 304 -438 454
-655 151 -217 305 -440 343 -495 38 -55 100 -145 138 -200 38 -55 83 -120 100
-145 18 -25 108 -155 200 -290 93 -135 172 -250 177 -255 4 -6 32 -46 62 -90
50 -73 370 -537 479 -695 25 -36 241 -348 480 -695 240 -346 504 -729 587
-850 84 -121 191 -276 238 -345 47 -69 118 -171 158 -228 77 -112 100 -173 95
-257 -5 -71 -18 -97 -163 -326 -72 -112 -200 -314 -285 -449 -189 -298 -876
-1385 -944 -1493 -27 -42 -177 -280 -334 -527 -157 -248 -315 -499 -352 -558
-37 -59 -72 -114 -78 -122 -6 -8 -78 -123 -161 -255 -83 -132 -160 -252 -170
-267 -23 -31 -30 -24 101 -107 86 -55 121 -74 125 -69 1 2 57 91 125 198 67
107 137 218 155 245 32 50 315 497 384 607 20 32 84 133 142 225 59 93 182
287 274 433 228 361 411 649 470 743 28 42 57 89 65 102 13 22 149 237 648
1025 58 91 126 199 153 240 27 41 60 99 74 129 l26 53 31 -43 c45 -63 70 -134
69 -202 0 -102 2 -98 -271 -522 -71 -110 -181 -281 -244 -380 -318 -497 -474
-740 -581 -905 -34 -52 -135 -210 -225 -350 -90 -140 -186 -291 -215 -335
-258 -402 -443 -689 -455 -710 -13 -21 -223 -348 -517 -805 -41 -63 -108 -167
-149 -230 -40 -63 -74 -119 -74 -125 0 -10 222 -155 237 -155 4 0 34 42 67 93
32 50 69 108 82 127 12 19 90 140 172 268 83 128 153 232 158 230 4 -2 7 -442
7 -978 l0 -975 -3042 -3 -3041 -2 -1 22 c-3 104 -1 5429 3 5433 2 3 351 5 774
6 423 0 801 5 839 10 136 17 159 20 164 24 3 1 24 6 46 9 22 4 80 17 130 31
49 13 108 26 131 29 168 21 444 111 634 206 685 342 1214 1011 1448 1830 34
117 58 217 67 270 3 19 8 42 10 50 2 8 6 31 9 50 3 19 8 44 10 55 2 12 7 48
11 80 4 33 8 71 11 84 26 171 26 773 -1 991 -30 241 -81 477 -145 675 -42 128
-81 233 -100 267 -6 10 -10 23 -10 29 0 37 -208 414 -306 555 -144 208 -369
450 -554 597 -338 270 -736 445 -1135 503 -22 3 -51 8 -65 11 -14 4 -484 8
-1045 10 -561 2 -1026 6 -1033 8 -7 3 -10 9 -7 15 7 12 12 11 -267 13 l-207 2
-1 -5605 c0 -3083 0 -5752 0 -5932 l0 -328 -2425 0 c-1764 0 -2425 3 -2425 11
0 6 7 39 16 73 9 33 18 68 19 76 2 8 4 15 5 15 1 0 3 7 5 15 1 8 8 35 15 60 7
25 13 52 15 60 2 12 20 76 30 110 4 12 24 89 121 460 57 217 108 411 114 430
12 42 72 268 135 510 139 532 144 549 155 585 5 17 11 41 14 55 7 34 114 438
127 477 5 17 12 44 15 60 3 15 14 57 24 93 10 36 38 137 61 225 115 444 341
1300 395 1500 20 72 37 138 39 148 2 10 43 166 91 345 130 490 220 833 255
967 17 66 40 151 51 189 11 38 21 76 23 85 2 9 42 162 90 341 47 179 88 334
90 345 3 11 34 130 70 265 37 135 68 252 70 260 1 8 9 35 16 60 7 25 14 52 15
60 3 14 87 333 158 600 37 136 116 435 122 460 2 8 8 31 13 50 5 19 26 98 46
175 20 77 61 232 91 345 61 227 351 1325 518 1959 31 118 55 219 53 224 -3 10
-266 81 -273 74 -6 -6 -61 -209 -219 -812 -26 -99 -55 -209 -65 -245 -10 -36
-50 -189 -90 -340 -40 -151 -96 -365 -125 -475 -29 -110 -81 -306 -115 -435
-34 -129 -73 -275 -87 -325 -14 -49 -26 -97 -28 -105 -4 -18 -92 -355 -140
-535 -20 -71 -60 -224 -91 -340 -55 -211 -65 -248 -169 -645 -31 -118 -69
-263 -86 -322 -17 -60 -32 -116 -34 -125 -2 -10 -20 -81 -40 -158 -58 -218
-101 -381 -129 -488 -28 -106 -139 -526 -216 -817 -46 -171 -223 -843 -306
-1160 -20 -74 -44 -166 -55 -205 -16 -57 -181 -683 -304 -1150 -14 -55 -40
-152 -56 -215 -17 -63 -32 -122 -35 -130 -2 -8 -19 -76 -39 -150 -20 -74 -47
-175 -60 -225 -13 -49 -31 -117 -40 -150 -9 -33 -18 -67 -20 -75 -5 -25 -75
-289 -107 -405 -16 -60 -52 -198 -80 -305 -28 -107 -61 -233 -74 -280 -69
-259 -99 -375 -148 -560 -30 -113 -73 -275 -95 -360 -23 -85 -44 -163 -46
-173 -14 -60 -7 -57 -136 -57 -65 0 -119 2 -119 4 0 2 11 41 24 87 13 46 45
165 71 264 26 99 71 272 102 385 30 113 56 212 58 220 2 8 33 128 70 265 37
138 68 257 70 265 2 8 18 69 35 135 18 66 33 127 35 135 2 8 14 56 28 105 13
50 41 153 62 230 20 77 55 208 77 290 22 83 41 157 43 165 2 8 15 58 29 110
13 52 59 223 100 380 165 625 187 708 206 780 12 41 23 84 25 95 2 11 36 139
75 285 113 424 121 454 125 470 2 8 15 59 30 113 15 54 28 106 30 115 2 9 11
44 20 77 9 33 30 112 46 175 31 118 229 867 294 1110 20 74 38 142 40 150 2 8
18 69 35 134 18 66 33 127 35 135 2 9 22 84 44 166 97 365 133 498 136 515 3
14 114 432 211 795 55 207 94 357 100 385 2 14 9 36 14 50 5 14 47 171 94 350
47 179 146 557 221 840 75 283 150 567 166 630 17 63 46 174 66 245 19 72 36
138 38 147 2 10 29 112 60 228 31 116 58 218 60 228 6 26 93 354 124 469 l28
102 -31 7 c-17 3 -80 19 -140 35 -60 16 -110 28 -112 26 -4 -4 -30 -102 -284
-1062 -204 -771 -199 -753 -260 -985 -44 -165 -91 -344 -200 -755 -17 -63 -37
-141 -130 -495 -15 -58 -40 -150 -55 -205 -14 -55 -40 -152 -56 -215 -17 -63
-66 -248 -109 -410 -43 -162 -120 -452 -170 -645 -51 -192 -112 -424 -136
-515 -24 -91 -55 -208 -69 -260 -14 -52 -56 -212 -94 -355 -86 -323 -239 -903
-256 -970 -7 -27 -32 -122 -55 -210 -24 -88 -64 -241 -90 -340 -27 -99 -69
-259 -94 -355 -26 -96 -62 -233 -81 -305 -28 -110 -91 -346 -186 -705 -11 -41
-33 -124 -49 -185 -16 -60 -45 -171 -65 -245 -20 -74 -37 -142 -39 -150 -2 -8
-16 -60 -31 -115 -14 -55 -40 -152 -57 -215 -16 -63 -45 -173 -64 -245 -19
-71 -57 -213 -84 -315 -50 -194 -92 -352 -141 -535 -16 -60 -47 -177 -68 -260
-22 -82 -74 -278 -115 -435 -42 -157 -83 -313 -92 -347 l-16 -63 -1507 0
-1506 0 83 54 c300 196 581 498 780 838 52 88 162 309 162 325 0 4 7 22 16 38
35 67 127 362 155 493 5 26 11 56 14 67 12 53 44 290 51 370 4 50 8 2176 9
4725 1 3769 -2 4647 -12 4700 -26 132 -117 269 -220 333 -23 15 -66 35 -97 45
-54 18 -110 19 -1508 18 l-1452 -1 1 -136 c0 -75 2 -140 5 -145 4 -5 581 -9
1425 -8 915 0 1427 -3 1443 -10 41 -16 77 -55 101 -109 17 -42 21 -69 21 -146
-1 -51 -3 -95 -5 -98 -3 -2 -20 5 -38 16 -88 51 -50 49 -1515 49 l-1364 0 0
-144 c0 -79 3 -144 8 -145 4 0 612 -2 1352 -3 740 -2 1352 -3 1361 -4 24 -3
74 -51 96 -92 17 -34 18 -176 18 -4385 0 -3755 -3 -4527 -20 -4555 -2 -3 -6
-27 -9 -55 -9 -64 -52 -263 -64 -295 -5 -14 -10 -28 -10 -33 0 -4 -13 -45 -28
-90 -114 -345 -297 -650 -539 -893 -122 -122 -141 -139 -247 -216 -216 -159
-495 -279 -731 -314 -18 -2 -54 -8 -82 -12 -106 -15 -605 -6 -634 12 -3 2 -27
7 -51 11 -176 24 -460 143 -653 274 -460 310 -803 830 -943 1426 -9 39 -18 81
-20 95 -2 14 -7 36 -9 50 -11 55 -13 67 -20 130 -4 36 -9 79 -12 95 -3 17 -7
242 -9 500 -1 259 -3 484 -4 500 l0 31 -212 -2 c-117 -1 -215 -2 -218 -3 -3 0
-5 -211 -4 -468 1 -418 6 -572 19 -653 2 -14 7 -50 9 -81 3 -31 7 -67 10 -80
3 -13 8 -36 10 -51 35 -213 124 -520 205 -703 191 -429 436 -764 756 -1034
100 -84 219 -171 234 -171 6 0 11 -4 11 -8 0 -5 17 -17 38 -28 37 -19 36 -19
-681 -22 -394 -1 -1040 -1 -1434 0 l-718 3 0 1057 c0 775 3 1054 11 1045 6 -7
105 -158 219 -337 115 -179 218 -340 230 -357 l22 -33 119 76 c65 42 121 78
123 80 3 2 -249 399 -514 809 -29 44 -78 121 -109 170 -32 50 -85 133 -119
186 -95 146 -153 237 -292 454 -70 110 -149 231 -174 270 -25 38 -50 78 -56
87 -8 15 -124 196 -383 598 -30 47 -71 110 -90 140 -19 30 -50 78 -68 105 -17
28 -132 205 -253 395 -122 190 -226 352 -231 360 -136 205 -414 647 -427 677
-22 53 -24 155 -6 211 9 26 32 70 52 99 l36 52 21 -47 c11 -26 46 -85 76 -132
30 -47 110 -173 178 -280 68 -107 137 -217 155 -245 18 -27 129 -203 247 -390
394 -624 650 -1029 702 -1110 29 -44 61 -95 72 -113 10 -18 66 -107 124 -197
58 -91 121 -191 141 -223 67 -107 421 -667 444 -702 61 -93 325 -513 325 -517
0 -3 8 -15 19 -28 l18 -24 49 32 c27 18 77 50 111 70 35 21 65 42 68 47 3 5
-32 68 -77 140 -46 71 -87 138 -93 148 -10 18 -138 220 -210 332 -105 163
-310 487 -322 510 -8 14 -36 58 -61 97 -58 89 -89 138 -642 1013 -245 388
-464 734 -487 770 -23 36 -139 220 -259 410 -120 190 -237 376 -262 413 -68
106 -82 143 -82 222 0 84 20 129 107 252 32 46 118 169 191 275 249 361 657
952 927 1343 147 215 291 422 319 462 28 40 115 166 194 280 79 114 237 343
350 508 114 165 243 352 287 415 43 63 93 135 109 159 17 24 38 53 46 65 45
68 88 130 293 426 124 179 292 421 374 539 81 118 264 381 406 584 141 203
257 370 257 372 0 4 -229 165 -235 165 -2 0 -16 -17 -32 -37z m14452 -627 c22
-3 58 -8 80 -11 140 -19 336 -73 480 -133 62 -26 218 -108 293 -154 236 -144
471 -362 654 -606 63 -85 165 -239 199 -303 26 -49 117 -233 143 -290 55 -120
153 -437 180 -579 3 -14 7 -36 11 -50 9 -40 24 -141 30 -200 4 -30 8 -68 10
-85 23 -160 23 -726 0 -890 -20 -144 -38 -256 -45 -285 -5 -19 -12 -50 -15
-69 -38 -219 -183 -598 -320 -836 -55 -94 -192 -305 -199 -305 -1 0 22 48 52
108 154 299 278 680 318 979 3 26 8 57 10 68 33 167 39 799 9 1028 -14 103
-17 128 -30 207 -50 299 -170 664 -300 905 -88 164 -110 202 -175 300 -243
363 -558 653 -910 839 -92 48 -255 122 -290 131 -3 0 -27 8 -55 18 -91 30
-225 62 -305 73 -25 3 -47 7 -50 9 -22 13 -294 19 -937 19 -710 1 -753 2 -754
19 -1 22 -1 62 0 86 1 20 15 20 939 17 515 -2 955 -6 977 -10z m-308 -409 c11
-3 43 -9 70 -12 182 -26 427 -110 600 -206 58 -33 224 -138 233 -148 3 -4 39
-33 80 -66 278 -220 544 -581 706 -955 59 -137 140 -386 160 -490 3 -14 7 -33
10 -42 6 -21 12 -50 24 -123 6 -33 12 -71 15 -85 35 -193 42 -863 10 -1031 -2
-9 -6 -40 -10 -70 -23 -193 -104 -487 -194 -705 -263 -640 -754 -1138 -1316
-1332 -16 -6 -55 -14 -85 -18 -80 -11 -1901 -11 -1907 0 -5 7 -8 5160 -4 5272
l1 21 793 -2 c435 -1 802 -5 814 -8z m-16567 -8234 c35 -54 86 -134 115 -178
28 -44 57 -90 64 -103 10 -18 12 -292 12 -1250 0 -675 0 -1255 -1 -1289 l0
-63 -125 0 c-69 0 -126 3 -126 8 -2 9 -4 2972 -3 2972 1 0 29 -44 64 -97z
m21592 -1375 c-1 -722 -1 -1357 -2 -1411 l0 -98 -127 3 -128 3 0 1215 c0 1062
2 1218 15 1241 41 72 234 368 238 364 2 -2 4 -595 4 -1317z"/>
</g>
</svg>
